{"title":"The Three Musketeers 2011 CAM XviD - ILLUMINATI","uid":6736039,"size":1545589278,"categoryP":"video","categoryS":"movies","magnet":"?xt=urn:btih:7722d2e3399875de592d6380abd3155d660ca489&amp;dn=The+Three+Musketeers+2011+CAM+XviD+-+ILLUMINATI&amp;tr=udp%3A%2F%2Ftracker.openbittorrent.com%3A80&amp;tr=udp%3A%2F%2Fopen.demonii.com%3A1337&amp;tr=udp%3A%2F%2Ftracker.coppersurfer.tk%3A6969&amp;tr=udp%3A%2F%2Fexodus.desync.com%3A6969","seeders":0,"leechers":0,"uploader":"Sunblock.","files":4,"time":1318293012,"description":"sharedump.org\n\n\nTitle: The Three Musketeers 2011 CAM XviD - ILLUMINATI\nFormat: Xvid \nSubtitles: No \nSample Included: Yes \n\n\nsource:\nAudio :  Many Thanx :P ;) \nVideo: FLOPPYDiSK source files  -  Many Thanx ;) :P\n\nimDb: http://www.imdb.com/title/tt1509767/\n\nPlot: \nThe hot-headed young D'Artagnan along with three former \nlegendary but now down on their luck Musketeers must unite \nand defeat a beautiful double agent and her villainous \nemployer from seizing the French throne \nand engulfing Europe in war. \n\nInfo:\n \nVideo\nID                               : 0\nFormat                           : MPEG-4 Visual\nFormat profile                   : Advanced Simple@L5\nFormat settings, BVOP            : 2\nFormat settings, QPel            : No\nFormat settings, GMC             : No warppoints\nFormat settings, Matrix          : Default (H.263)\nMuxing mode                      : Packed bitstream\nCodec ID                         : XVID\nCodec ID/Hint                    : XviD\nDuration                         : 1h 45mn\nBit rate                         : 1 731 Kbps\nWidth                            : 720 pixels\nHeight                           : 304 pixels\nDisplay aspect ratio             : 2.35:1\nFrame rate                       : 25.000 fps\nColor space                      : YUV\nChroma subsampling               : 4:2:0\nBit depth                        : 8 bits\nScan type                        : Progressive\nCompression mode                 : Lossy\nBits/(Pixel*Frame)               : 0.316\nStream size                      : 1.27 GiB (90%)\nWriting library                  : XviD 64\n\nAudio\nID                               : 1\nFormat                           : MPEG Audio\nFormat version                   : Version 1\nFormat profile                   : Layer 3\nMode                             : Joint stereo\nMode extension                   : MS Stereo\nCodec ID                         : 55\nCodec ID/Hint                    : MP3\nDuration                         : 1h 45mn\nBit rate mode                    : Constant\nBit rate                         : 192 Kbps\nChannel(s)                       : 2 channels\nSampling rate                    : 48.0 KHz\nCompression mode                 : Lossy\nStream size                      : 144 MiB (10%)\nAlignment                        : Split accross interleaves\nInterleave, duration             : 40 ms (1.00 video frame)\n\nRelease Notes:\n\nHere we have a very nice release for all The Three Musketeers 2011 CAM XviD - ILLUMINATI ;)\nVideo is nice overall gotter say thanks to FLOPPYDiSK tho for the sourcefiles for us to use on\nthis release.\nOnto audio which honestly must say sounds very nice which was given to use on behalf of :P\nso once again must say thanks for the audio as with out the audio the release wouldnt be what it is.\nThere is a sample included check it out before you download and if u dont like the sample.....\ngo to the cinema and watch it or wait for bluray :P :P\n\nScreens:\n[IMG]http://i.imgur.com/HzaN4.png[/IMG]\n[IMG]http://i.imgur.com/Cp2Am.png[/IMG]\n[IMG]http://i.imgur.com/z8bum.png[/IMG]\n[IMG]http://i.imgur.com/CIbGj.png[/IMG]\n[IMG]http://i.imgur.com/uX1Al.png[/IMG]\n\nGreets To All Doing There Thing To SUpport P2P And The Scene ;) ","torrent":{"xt":"urn:btih:7722d2e3399875de592d6380abd3155d660ca489","amp;dn":"The+Three+Musketeers+2011+CAM+XviD+-+ILLUMINATI","amp;tr":["udp%3A%2F%2Ftracker.openbittorrent.com%3A80","udp%3A%2F%2Fopen.demonii.com%3A1337","udp%3A%2F%2Ftracker.coppersurfer.tk%3A6969","udp%3A%2F%2Fexodus.desync.com%3A6969"],"infoHash":"7722d2e3399875de592d6380abd3155d660ca489","infoHashBuffer":{"type":"Buffer","data":[119,34,210,227,57,152,117,222,89,45,99,128,171,211,21,93,102,12,164,137]},"announce":[],"urlList":[]}}